HIERARCHY
ROOT RootJoint
{
    OFFSET   0.000000   0.000000   0.000000
    CHANNELS 6 Xposition Yposition Zposition Xrotation Yrotation Zrotation
    JOINT pelvis_lowerback
    {
        OFFSET   0.000000   0.093605   0.000000
        CHANNELS 3 Xrotation Yrotation Zrotation
        JOINT lowerback_torso
        {
            OFFSET   0.000000   0.100000   0.000000
            CHANNELS 3 Xrotation Yrotation Zrotation
            JOINT torso_head
            {
                OFFSET   0.000000   0.282350   0.000000
                CHANNELS 3 Xrotation Yrotation Zrotation
                End Site
                {
                    OFFSET   0.000000   0.192650   0.000000
                }
            }
            JOINT rTorso_Clavicle
            {
                OFFSET  -0.001000   0.157500   0.000000
                CHANNELS 3 Xrotation Yrotation Zrotation
                JOINT rShoulder
                {
                    OFFSET  -0.117647   0.000000   0.000000
                    CHANNELS 3 Xrotation Yrotation Zrotation
                    JOINT rElbow
                    {
                        OFFSET  -0.245000   0.000000   0.000000
                        CHANNELS 3 Xrotation Yrotation Zrotation
                        JOINT rWrist
                        {
                            OFFSET  -0.240000   0.000000   0.000000
                            CHANNELS 3 Xrotation Yrotation Zrotation
                            End Site
                            {
                                OFFSET  -0.116353  -0.002500   0.000000
                            }
                        }
                    }
                }
            }
            JOINT lTorso_Clavicle
            {
                OFFSET   0.001000   0.157500   0.000000
                CHANNELS 3 Xrotation Yrotation Zrotation
                JOINT lShoulder
                {
                    OFFSET   0.117647   0.000000   0.000000
                    CHANNELS 3 Xrotation Yrotation Zrotation
                    JOINT lElbow
                    {
                        OFFSET   0.245000   0.000000   0.000000
                        CHANNELS 3 Xrotation Yrotation Zrotation
                        JOINT lWrist
                        {
                            OFFSET   0.240000   0.000000   0.000000
                            CHANNELS 3 Xrotation Yrotation Zrotation
                            End Site
                            {
                                OFFSET   0.116353  -0.002500   0.000000
                            }
                        }
                    }
                }
            }
        }
    }
    JOINT rHip
    {
        OFFSET  -0.100000  -0.051395   0.000000
        CHANNELS 3 Xrotation Yrotation Zrotation
        JOINT rKnee
        {
            OFFSET   0.000000  -0.410000   0.000000
            CHANNELS 3 Xrotation Yrotation Zrotation
            JOINT rAnkle
            {
                OFFSET   0.000000  -0.390000   0.000000
                CHANNELS 3 Xrotation Yrotation Zrotation
                JOINT rToeJoint
                {
                    OFFSET   0.000000  -0.050000   0.130000
                    CHANNELS 3 Xrotation Yrotation Zrotation
                    End Site
                    {
                        OFFSET  -0.010000   0.002000   0.060000
                    }
                }
            }
        }
    }
    JOINT lHip
    {
        OFFSET   0.100000  -0.051395   0.000000
        CHANNELS 3 Xrotation Yrotation Zrotation
        JOINT lKnee
        {
            OFFSET   0.000000  -0.410000   0.000000
            CHANNELS 3 Xrotation Yrotation Zrotation
            JOINT lAnkle
            {
                OFFSET   0.000000  -0.390000   0.000000
                CHANNELS 3 Xrotation Yrotation Zrotation
                JOINT lToeJoint
                {
                    OFFSET   0.000000  -0.050000   0.130000
                    CHANNELS 3 Xrotation Yrotation Zrotation
                    End Site
                    {
                        OFFSET   0.010000   0.002000   0.060000
                    }
                }
            }
        }
    }
}
MOTION
Frames: 17
Frame Time:   0.008333
 -2.592643   0.909972   3.917941  -1.027669  -2.356867  -2.857754   8.089237   1.226941   1.734937  -0.237281  -2.311306   0.943304  -1.659177  -3.032827   2.400246   0.454926  -1.193226   2.536481  -7.439708   1.348148  39.001920  -0.008654  79.738629   0.008030  -0.183384   2.677873  -8.538041   1.384687   2.249606  -5.354406  -6.251936   0.553551 -43.218156   0.037080 -88.481729   0.034754  -1.249032  -3.370279  12.019325 -11.363624   1.424284   4.943199  14.817930   0.002698  -0.003625  -0.577198   2.051257  -1.768492  -2.885380  -0.000059  -0.000012 -20.424429   4.332380   6.567554  77.238401   0.014771  -0.012489  -7.806919  -2.840652  -9.422848   0.035472   0.007963  -0.003550
 -2.593546   0.910357   3.914762  -0.797868  -2.315317  -2.905228   7.739374   1.105687   1.852856  -0.231465  -2.408279   1.093177  -1.514729  -3.015465   2.369527   0.614089  -1.536620   2.463775  -6.648499   1.251292  39.174780  -0.012792  79.275739   0.011326  -0.120795   2.793503  -8.478810   1.425274   2.301891  -5.287008  -6.608799   0.522836 -43.092163   0.040557 -88.227038   0.037857  -1.251647  -3.387597  12.004946 -11.698999   1.438098   5.071816  14.481619   0.002342  -0.003191   0.152697   1.932987  -1.837065  -3.335443  -0.000053   0.000012 -19.351615   4.472689   5.855184  76.274061   0.010231  -0.004558  -7.651037  -3.365085  -9.630397   0.170482   0.006981  -0.004044
 -2.594495   0.910608   3.911470  -0.550829  -2.250639  -2.984544   7.383968   0.963451   1.991146  -0.242306  -2.519675   1.249370  -1.383455  -2.999507   2.335379   0.792442  -1.872029   2.411864  -5.879872   1.150472  39.353007  -0.015386  78.824904   0.013177  -0.074802   2.804263  -8.348896   1.447160   2.342473  -5.209615  -6.957046   0.486392 -42.970980   0.040440 -87.989645   0.037514  -1.257467  -3.389201  12.025568 -12.093314   1.424142   5.233482  14.214034   0.002028  -0.002804   0.867352   1.805151  -1.908071  -3.803771  -0.000047   0.000034 -18.260837   4.519077   5.205694  75.042931   0.006478   0.002814  -7.518725  -3.852363  -9.820796   0.289932   0.006036  -0.004279
 -2.595455   0.910678   3.908008  -0.303891  -2.177701  -3.082703   7.048482   0.811371   2.136139  -0.260506  -2.642837   1.412084  -1.264086  -2.984761   2.302499   0.969225  -2.194731   2.373099  -5.152125   1.051502  39.526008  -0.016517  78.398788   0.013738  -0.037382   2.769824  -8.198966   1.455877   2.371413  -5.125212  -7.292630   0.445469 -42.852756   0.037592 -87.771635   0.034557  -1.260174  -3.404779  12.064655 -12.505807   1.397133   5.412351  13.969050   0.001765  -0.002479   1.527544   1.676976  -1.976392  -4.195199  -0.000042   0.000044 -17.214391   4.531980   4.622329  73.795839   0.003318   0.008193  -7.399547  -4.305906  -9.996777   0.399528   0.005216  -0.004316
 -2.596399   0.910579   3.904355  -0.065745  -2.106904  -3.187832   6.740132   0.655763   2.280160  -0.278358  -2.771762   1.575173  -1.153607  -2.971189   2.271770   1.138484  -2.500969   2.344028  -4.468407   0.957534  39.691821  -0.016692  77.998638   0.013509  -0.004264   2.718018  -8.048809   1.455707   2.390358  -5.039670  -7.613194   0.401370 -42.739280   0.033315 -87.570470   0.030269  -1.259554  -3.434232  12.110704 -12.921765   1.367935   5.594850  13.731925   0.001545  -0.002209   2.131107   1.556396  -2.039443  -4.492977  -0.000035   0.000035 -16.224442   4.529884   4.090637  72.604409   0.000748   0.011746  -7.290225  -4.728983 -10.159946   0.500449   0.004514  -0.004215
 -2.597315   0.910334   3.900508   0.159303  -2.044485  -3.293149   6.460337   0.501062   2.419304  -0.291973  -2.901883   1.734309  -1.050297  -2.958686   2.243192   1.298503  -2.789225   2.322592  -3.827957   0.870004  39.850206  -0.016279  77.623958   0.012837   0.026319   2.659989  -7.902581   1.450197   2.401366  -4.956898  -7.916990   0.355413 -42.632316   0.028493 -87.384148   0.025514  -1.256650  -3.472763  12.156693 -13.335428   1.339111   5.774366  13.498273   0.001363  -0.001977   2.684997   1.444029  -2.097744  -4.703066  -0.000029   0.000028 -15.292094   4.519419   3.600194  71.487400  -0.001235   0.013892  -7.189318  -5.123967 -10.311448   0.593299   0.003911  -0.004026
 -2.598197   0.909959   3.896468   0.368598  -1.991832  -3.394973   6.208569   0.349548   2.551616  -0.299563  -3.030630   1.886974  -0.953148  -2.947171   2.216622   1.448971  -3.059449   2.307218  -3.228826   0.789281  40.001200  -0.015516  77.273678   0.011938   0.055162   2.600576  -7.760576   1.441789   2.406127  -4.879002  -8.203213   0.308612 -42.532821   0.023684 -87.211134   0.020829  -1.252393  -3.516300  12.198410 -13.743887   1.312470   5.947215  13.266726   0.001210  -0.001774   3.196505   1.340557  -2.151498  -4.834885  -0.000024   0.000022 -14.415920   4.503007   3.144799  70.447301  -0.002687   0.014999  -7.095948  -5.492825 -10.452216   0.678588   0.003390  -0.003780
 -2.599142   0.909877   3.892457   0.523737  -1.908783  -3.401640   5.995900   0.167013   2.545053  -0.297351  -3.159395   1.997984  -0.891163  -2.985068   2.262883   1.555510  -3.317902   2.330269  -2.475570   0.846944  40.305455  -0.020783  76.695400   0.016070   0.111794   2.671642  -7.789310   1.453795   2.403887  -4.787066  -8.593572   0.128074 -42.353546   0.020036 -86.891885   0.016856  -1.207974  -3.550358  12.198032 -14.098036   1.268244   6.005420  13.054230   0.001060  -0.001568   3.765173   1.305128  -2.167173  -5.075334   0.000053  -0.000092 -13.185021   4.142114   2.519605  68.189539  -0.000072   0.023648  -7.678086  -5.719810 -10.175854   0.753384   0.002373  -0.003739
 -2.600193   0.909703   3.888205   0.694384  -1.745241  -3.436707   5.795601  -0.044203   2.541697  -0.307674  -3.315270   2.113581  -0.841605  -3.023015   2.301012   1.678982  -3.553353   2.381272  -1.748846   0.908556  40.618770  -0.024857  76.142146   0.019271   0.153798   2.652016  -7.725910   1.434663   2.367232  -4.663664  -8.984955  -0.064544 -42.171969   0.017172 -86.594366   0.013789  -1.166849  -3.568537  12.193459 -14.488011   1.257786   6.073159  12.859247   0.000889  -0.001593   4.338595   1.313567  -2.176845  -5.321742   0.000089  -0.000536 -12.030716   3.690097   1.999540  65.734664   0.001771   0.030148  -8.239977  -5.926241  -9.915861   0.766873   0.001828  -0.003118
 -2.601281   0.909382   3.883709   0.854130  -1.533824  -3.487354   5.625350  -0.262243   2.539177  -0.315505  -3.484008   2.231032  -0.796933  -3.058654   2.332896   1.802406  -3.771300   2.443953  -1.063271   0.971318  40.922436  -0.027386  75.623499   0.021274   0.190020   2.604414  -7.620123   1.396100   2.309850  -4.528114  -9.368458  -0.261127 -41.995545   0.014772 -86.322360   0.011323  -1.121821  -3.611079  12.194551 -14.880049   1.254878   6.143064  12.673078   0.000732  -0.001691   4.872574   1.330497  -2.182441  -5.502343   0.000093  -0.000869 -10.978634   3.231991   1.574780  63.340072   0.002021   0.033423  -8.767688  -6.119302  -9.674418   0.775175   0.001420  -0.002567
 -2.602355   0.908919   3.878992   0.992064  -1.299537  -3.541849   5.484921  -0.475560   2.535647  -0.314189  -3.653999   2.344343  -0.754100  -3.091815   2.360570   1.920720  -3.972687   2.511186  -0.421013   1.034823  41.211321  -0.028619  75.138773   0.022272   0.223756   2.550502  -7.497407   1.348759   2.241828  -4.393322  -9.736216  -0.455319 -41.829134   0.012728 -86.072152   0.009327  -1.073543  -3.674944  12.197608 -15.261399   1.257070   6.206114  12.492732   0.000594  -0.001800   5.362846   1.350530  -2.189137  -5.607893   0.000078  -0.000979 -10.019864   2.790235   1.217677  61.074580   0.001312   0.034296  -9.261050  -6.300784  -9.450710   0.780978   0.001108  -0.002100
 -2.603387   0.908333   3.874076   1.104082  -1.057463  -3.594558   5.370411  -0.678305   2.530784  -0.302563  -3.818389   2.450650  -0.712305  -3.122604   2.385227   2.032268  -4.158469   2.579326   0.178933   1.098700  41.483983  -0.028833  74.686333   0.022473   0.256091   2.497335  -7.367764   1.299665   2.169888  -4.265783 -10.083506  -0.642940 -41.675079   0.011021 -85.840518   0.007751  -1.024262  -3.749852  12.198262 -15.627645   1.263125   6.258763  12.317323   0.000474  -0.001889   5.814869   1.371317  -2.197441  -5.645595   0.000060  -0.000887  -9.143245   2.370582   0.909381  58.953143   0.000224   0.033615  -9.721628  -6.471551  -9.243444   0.784812   0.000869  -0.001708
 -2.604366   0.907653   3.868979   1.187187  -0.816135  -3.645903   5.279214  -0.867555   2.526695  -0.280797  -3.973461   2.550001  -0.671508  -3.151177   2.407717   2.136466  -4.329421   2.647133   0.738459   1.162571  41.740365  -0.028295  74.264068   0.022076   0.287351   2.446739  -7.235938   1.252828   2.097871  -4.149313 -10.408202  -0.821616 -41.534341   0.009626 -85.624893   0.006545  -0.975763  -3.827355  12.194035 -15.980810   1.270981   6.303536  12.153532   0.000372  -0.001930   6.250106   1.390863  -2.209170  -5.650919   0.000047  -0.000724  -8.338233   1.973601   0.640921  56.973602  -0.000902   0.031994 -10.151327  -6.632189  -9.051303   0.787314   0.000684  -0.001384
 -2.605405   0.907386   3.863338   1.323654  -0.604697  -3.611762   5.257689  -1.032300   2.369970  -0.302941  -4.084493   2.595690  -0.769732  -3.208892   2.559445   2.213197  -4.444872   2.824542   1.458074   1.343498  42.036637  -0.036937  73.575482   0.030219   0.338124   2.595180  -7.298718   1.138684   2.003453  -3.986419 -10.828717  -1.137001 -41.300713   0.008314 -85.447506   0.005437  -0.939970  -3.779682  12.146717 -16.401887   1.321641   6.223531  11.912257   0.000191  -0.002129   6.864335   1.536791  -1.849844  -5.288001  -0.000965   0.000661  -7.478671   1.440890   0.271169  54.163366   0.000577   0.035695 -11.479272  -6.590239  -8.364310   0.913360  -0.000673  -0.002035
 -2.606460   0.906721   3.857463   1.466673  -0.270940  -3.526079   5.254947  -1.240274   2.155866  -0.320282  -4.232056   2.615050  -0.866809  -3.264418   2.689859   2.313534  -4.547705   3.006196   2.156539   1.521157  42.339812  -0.043174  72.921202   0.036424   0.376836   2.650419  -7.239786   0.981427   1.870821  -3.752600 -11.267673  -1.470873 -41.052819   0.007481 -85.302569   0.004792  -0.890499  -3.807524  12.113139 -16.795915   1.393040   6.012348  11.663402  -0.000101  -0.002541   7.691913   1.706733  -1.449188  -7.549194   0.005154  -0.009697  -6.717526   0.893680  -0.089800  51.317261  -0.000107   0.036142 -12.740419  -6.559468  -7.721589   0.951365  -0.000884  -0.001859
 -2.607599   0.906200   3.851097   1.610970   0.053085  -3.529660   5.313143  -1.424357   2.001498  -0.324874  -4.372306   2.661220  -0.961470  -3.315112   2.806516   2.404608  -4.620950   3.208596   2.805657   1.700260  42.631978  -0.047361  72.301768   0.040719   0.409226   2.657540  -7.137621   0.807142   1.715720  -3.531661 -11.701604  -1.801836 -40.817694   0.006105 -85.171963   0.003641  -0.830097  -3.886465  12.117327 -17.230590   1.474080   5.931082  11.375991  -0.000275  -0.003093   8.213746   1.897500  -1.125780  -7.240440   0.003381  -0.006251  -6.088477   0.371509  -0.308760  48.577967  -0.000960   0.035033 -13.920317  -6.541668  -7.121909   0.987202  -0.001013  -0.001678
 -2.608683   0.905618   3.844460   1.721342   0.374353  -3.526928   5.408691  -1.599887   1.839405  -0.297359  -4.507834   2.702869  -1.042494  -3.362162   2.912328   2.491545  -4.680630   3.406303   3.412321   1.878257  42.913667  -0.049224  71.726267   0.042909   0.440050   2.662808  -6.999387   0.634347   1.556175  -3.309848 -12.115549  -2.122837 -40.596046   0.004659 -85.055035   0.002427  -0.766470  -3.990232  12.123403 -17.655304   1.540716   5.837517  11.092966  -0.000408  -0.003469   8.797570   2.066963  -0.805296  -7.045208   0.002262  -0.004111  -5.532109  -0.120237  -0.513691  45.995509  -0.002108   0.033201 -15.023343  -6.534827  -6.562432   1.017104  -0.001045  -0.001484
